<svg width="32" height="33" viewBox="0 0 32 33" fill="none" xmlns="http://www.w3.org/2000/svg">
<path d="M20.5433 0H1.58026C1.16115 0 0.759202 0.163616 0.462846 0.454855C0.166491 0.746093 0 1.1411 0 1.55297V29.5065C0 29.9183 0.166491 30.3133 0.462846 30.6046C0.759202 30.8958 1.16115 31.0594 1.58026 31.0594H14.6253C13.2304 29.0926 12.5362 26.7277 12.6509 24.3329C12.7655 21.9381 13.6825 19.6477 15.2591 17.8182C16.8357 15.9887 18.9835 14.7227 21.3682 14.2173C23.753 13.7118 26.2408 13.9952 28.4446 15.0234V7.76486L20.5433 0ZM17.0446 20.6965C17.1063 19.5674 17.9928 18.6481 19.1369 18.5285L20.5117 18.3856C20.6757 18.3687 20.83 18.3013 20.9526 18.1931L21.9814 17.2846C22.3959 16.9188 22.9294 16.7101 23.4862 16.6959C24.0431 16.6816 24.5869 16.8628 25.0202 17.2069L26.0979 18.0611C26.2244 18.162 26.3824 18.221 26.5467 18.2303L27.9279 18.3033C29.0767 18.3639 30.0122 19.2351 30.1339 20.3595L30.2793 21.7105C30.2964 21.8717 30.365 22.0234 30.4753 22.1438L31.3997 23.1548C32.1693 23.9965 32.2025 25.2622 31.4787 26.1412L30.6096 27.2003C30.5065 27.3259 30.4462 27.4802 30.4373 27.6413L30.3631 28.9986C30.3335 29.5454 30.1067 30.064 29.7232 30.4613C29.3398 30.8586 28.8249 31.1086 28.2708 31.1666L26.896 31.3095C26.732 31.3264 26.5777 31.3938 26.4551 31.502L25.4263 32.4105C25.0119 32.7763 24.4783 32.985 23.9215 32.9992C23.3646 33.0135 22.8208 32.8323 22.3875 32.4882L21.3098 31.634C21.182 31.5327 21.0249 31.4735 20.861 31.4648L19.4798 31.3918C18.9234 31.3627 18.3957 31.1398 17.9915 30.763C17.5872 30.3862 17.3327 29.8801 17.2738 29.3356L17.1284 27.9845C17.1112 27.8234 17.0426 27.6718 16.9325 27.5513L16.008 26.5403C15.6358 26.133 15.4234 25.6087 15.409 25.0614C15.3945 24.5141 15.5788 23.9797 15.929 23.5539L16.7981 22.4948C16.9012 22.3692 16.9615 22.2149 16.9704 22.0537L17.0446 20.6965ZM28.492 23.3412L26.817 21.695L22.9137 25.5309L20.5907 23.248L18.9157 24.8941L22.0762 28.0001L22.9137 28.8232L23.7513 28.0001L28.492 23.3412Z" fill="white"/>
</svg>
