<svg width="26" height="32" viewBox="0 0 26 32" fill="none" xmlns="http://www.w3.org/2000/svg">
<path d="M0.333252 27.0833V23.9167H3.49992V12.8333C3.49992 10.643 4.15964 8.69713 5.47909 6.99557C6.79853 5.29402 8.51381 4.17882 10.6249 3.64999V2.54166C10.6249 1.88193 10.8561 1.32143 11.3184 0.860157C11.7808 0.398879 12.3413 0.167712 12.9999 0.166656C13.6596 0.166656 14.2207 0.397823 14.683 0.860157C15.1453 1.32249 15.376 1.88299 15.3749 2.54166V3.64999C17.486 4.17777 19.2013 5.29296 20.5208 6.99557C21.8402 8.69819 22.4999 10.6441 22.4999 12.8333V23.9167H25.6666V27.0833H0.333252ZM12.9999 31.8333C12.1291 31.8333 11.3839 31.5235 10.7643 30.9039C10.1446 30.2843 9.83431 29.5386 9.83325 28.6667H16.1666C16.1666 29.5375 15.8568 30.2832 15.2372 30.9039C14.6176 31.5246 13.8718 31.8344 12.9999 31.8333Z" fill="white"/>
</svg>
