<svg width="14" height="15" viewBox="0 0 14 15" fill="none" xmlns="http://www.w3.org/2000/svg">
<path fill-rule="evenodd" clip-rule="evenodd" d="M13.9441 7.10319C13.9441 8.93655 13.2538 10.6948 12.0251 11.9912C10.7964 13.2876 9.1299 14.0159 7.39223 14.0159C5.65456 14.0159 3.98806 13.2876 2.75934 11.9912C1.53062 10.6948 0.840332 8.93655 0.840332 7.10319C0.840332 5.26983 1.53062 3.51156 2.75934 2.21517C3.98806 0.918791 5.65456 0.190491 7.39223 0.190491C9.1299 0.190491 10.7964 0.918791 12.0251 2.21517C13.2538 3.51156 13.9441 5.26983 13.9441 7.10319ZM9.4397 4.94297C9.4397 5.5159 9.22398 6.06536 8.84001 6.47048C8.45603 6.8756 7.93525 7.10319 7.39223 7.10319C6.84921 7.10319 6.32842 6.8756 5.94445 6.47048C5.56048 6.06536 5.34476 5.5159 5.34476 4.94297C5.34476 4.37005 5.56048 3.82059 5.94445 3.41547C6.32842 3.01035 6.84921 2.78275 7.39223 2.78275C7.93525 2.78275 8.45603 3.01035 8.84001 3.41547C9.22398 3.82059 9.4397 4.37005 9.4397 4.94297ZM7.39223 8.83136C6.63091 8.83063 5.87988 9.01684 5.19858 9.37528C4.51727 9.73372 3.92437 10.2545 3.46682 10.8965C3.96497 11.4718 4.57137 11.931 5.24727 12.2449C5.92318 12.5589 6.65373 12.7206 7.39223 12.7198C8.13073 12.7206 8.86128 12.5589 9.53718 12.2449C10.2131 11.931 10.8195 11.4718 11.3176 10.8965C10.8601 10.2545 10.2672 9.73372 9.58588 9.37528C8.90457 9.01684 8.15354 8.83063 7.39223 8.83136Z" fill="white"/>
</svg>
