<svg width="13" height="14" viewBox="0 0 13 14" fill="none" xmlns="http://www.w3.org/2000/svg">
<path fill-rule="evenodd" clip-rule="evenodd" d="M6.93499 1.62175C6.57381 1.61487 6.21489 1.6832 5.87878 1.82283C5.54266 1.96246 5.23594 2.17064 4.97617 2.43548C4.7164 2.70031 4.50869 3.01659 4.36491 3.36622C4.22113 3.71584 4.14411 4.09195 4.13826 4.47301V8.45822C4.13826 8.69998 4.04724 8.93183 3.88521 9.10277C3.72318 9.27372 3.50342 9.36975 3.27428 9.36975H2.19429C1.85058 9.36975 1.52094 9.2257 1.2779 8.96928C1.03486 8.71286 0.898315 8.36509 0.898315 8.00246L0.898315 6.1794C0.898315 5.81677 1.03486 5.46899 1.2779 5.21257C1.52094 4.95616 1.85058 4.8121 2.19429 4.8121H2.84228V4.4566C2.85017 3.89637 2.96258 3.34327 3.1731 2.82887C3.38362 2.31448 3.68812 1.84888 4.06922 1.45866C4.45032 1.06844 4.90054 0.761252 5.39418 0.554632C5.88782 0.348011 6.41521 0.246009 6.94622 0.254452C7.47723 0.246009 8.00461 0.348011 8.49826 0.554632C8.9919 0.761252 9.44212 1.06844 9.82322 1.45866C10.2043 1.84888 10.5088 2.31448 10.7193 2.82887C10.9299 3.34327 11.0423 3.89637 11.0502 4.4566V4.8121H11.6981C12.0419 4.8121 12.3715 4.95616 12.6145 5.21257C12.8576 5.46899 12.9941 5.81677 12.9941 6.1794V8.00246C12.9941 8.36509 12.8576 8.71286 12.6145 8.96928C12.3715 9.2257 12.0419 9.36975 11.6981 9.36975H11.0502V9.82552C11.0503 10.4415 10.8354 11.0359 10.4466 11.4954C10.0577 11.9549 9.52215 12.2473 8.94203 12.3167C8.82937 12.5289 8.66509 12.7056 8.46613 12.8285C8.26718 12.9514 8.04075 13.0161 7.81021 13.0159H6.51423C6.17051 13.0159 5.84087 12.8718 5.59783 12.6154C5.35479 12.359 5.21825 12.0112 5.21825 11.6486C5.21825 11.2859 5.35479 10.9382 5.59783 10.6818C5.84087 10.4253 6.17051 10.2813 6.51423 10.2813H7.81021C8.27849 10.2813 8.68888 10.5429 8.91611 10.9358C9.15425 10.878 9.36678 10.7368 9.519 10.5351C9.67122 10.3335 9.75413 10.0833 9.75418 9.82552V4.4721C9.74825 4.08908 9.67042 3.71109 9.52519 3.35999C9.37995 3.00889 9.1702 2.69165 8.90804 2.4266C8.64589 2.16155 8.33654 1.95395 7.99788 1.8158C7.65922 1.67765 7.29796 1.6117 6.93499 1.62175Z" fill="#5900DF"/>
</svg>
