<svg width="33" height="33" viewBox="0 0 33 33" fill="none" xmlns="http://www.w3.org/2000/svg">
<path fill-rule="evenodd" clip-rule="evenodd" d="M33 16.5001C32.9998 13.9475 32.4074 11.4298 31.2693 9.14491C30.1313 6.86006 28.4786 4.8704 26.4414 3.33245C24.4041 1.79449 22.0378 0.75018 19.5286 0.281647C17.0194 -0.186885 14.4357 -0.0668573 11.9807 0.632289C9.52573 1.33144 7.26644 2.59063 5.38054 4.31084C3.49465 6.03105 2.03358 8.16535 1.11226 10.5459C0.190937 12.9264 -0.16551 15.4882 0.0709535 18.0298C0.307417 20.5714 1.13034 23.0235 2.475 25.1932C3.95392 27.5816 6.01864 29.5525 8.47321 30.9188C10.9278 32.2851 13.6908 33.0016 16.5 33.0001C20.8761 33.0001 25.0729 31.2617 28.1673 28.1673C31.2616 25.073 33 20.8762 33 16.5001ZM16.5 29.4644C17.7628 29.4662 19.019 29.2836 20.229 28.9222C19.2084 24.2904 16.0851 20.4789 10.7745 20.4789C8.54465 20.4789 6.62122 21.245 5.00657 22.5061C6.1039 24.6052 7.75533 26.3636 9.78156 27.5903C11.8078 28.817 14.1314 29.4652 16.5 29.4644ZM22.6144 27.9346C24.995 26.6573 26.9193 24.6712 28.1207 22.2515C26.8342 21.4525 25.3636 20.9981 23.8506 20.932C22.3376 20.866 20.8331 21.1905 19.4818 21.8744C19.5926 21.9969 19.7034 22.1219 19.8094 22.2515C21.1836 23.8968 22.0959 25.8744 22.6121 27.9369L22.6144 27.9346ZM11.1469 7.6443C12.5504 7.6443 13.8964 8.20183 14.8888 9.19423C15.8812 10.1866 16.4387 11.5326 16.4387 12.9361C16.4387 14.3396 15.8812 15.6855 14.8888 16.6779C13.8964 17.6703 12.5504 18.2279 11.1469 18.2279C9.74346 18.2279 8.39748 17.6703 7.40507 16.6779C6.41267 15.6855 5.85515 14.3396 5.85515 12.9361C5.85515 11.5326 6.41267 10.1866 7.40507 9.19423C8.39748 8.20183 9.74346 7.6443 11.1469 7.6443ZM27.8096 14.4729C27.8096 13.8972 27.6962 13.3271 27.4758 12.7951C27.2555 12.2632 26.9326 11.7799 26.5254 11.3728C26.1183 10.9657 25.635 10.6427 25.1031 10.4224C24.5712 10.2021 24.001 10.0887 23.4253 10.0887C22.8495 10.0887 22.2794 10.2021 21.7475 10.4224C21.2156 10.6427 20.7322 10.9657 20.3251 11.3728C19.918 11.7799 19.5951 12.2632 19.3747 12.7951C19.1544 13.3271 19.041 13.8972 19.041 14.4729C19.041 15.6357 19.5029 16.7509 20.3251 17.5731C21.1473 18.3953 22.2625 18.8572 23.4253 18.8572C24.5881 18.8572 25.7032 18.3953 26.5254 17.5731C27.3477 16.7509 27.8096 15.6357 27.8096 14.4729Z" fill="white"/>
</svg>
