<svg width="85" height="82" viewBox="0 0 85 82" fill="none" xmlns="http://www.w3.org/2000/svg">
<g filter="url(#filter0_d_224_57)">
<path d="M27.0625 32.5V37.625C27.0625 38.9842 26.5225 40.2878 25.5614 41.2489C24.6003 42.21 23.2967 42.75 21.9375 42.75V27.375C23.2967 27.375 24.6003 27.915 25.5614 28.8761C26.5225 29.8372 27.0625 31.1408 27.0625 32.5ZM80.875 17.125V53C80.875 54.3592 80.335 55.6628 79.3739 56.6239C78.4128 57.585 77.1092 58.125 75.75 58.125H9.125C7.76577 58.125 6.4622 57.585 5.50108 56.6239C4.53995 55.6628 4 54.3592 4 53V17.125C4 15.7658 4.53995 14.4622 5.50108 13.5011C6.4622 12.54 7.76577 12 9.125 12H75.75C77.1092 12 78.4128 12.54 79.3739 13.5011C80.335 14.4622 80.875 15.7658 80.875 17.125ZM32.1875 32.5C32.1875 29.7815 31.1076 27.1744 29.1853 25.2522C27.2631 23.3299 24.656 22.25 21.9375 22.25H19.375C18.6954 22.25 18.0436 22.52 17.563 23.0005C17.0825 23.4811 16.8125 24.1329 16.8125 24.8125V45.3125C16.8125 45.9921 17.0825 46.6439 17.563 47.1245C18.0436 47.605 18.6954 47.875 19.375 47.875H21.9375C24.656 47.875 27.2631 46.7951 29.1853 44.8728C31.1076 42.9506 32.1875 40.3435 32.1875 37.625V32.5ZM42.4375 32.5V27.375H47.5625C48.2421 27.375 48.8939 27.105 49.3745 26.6245C49.855 26.1439 50.125 25.4921 50.125 24.8125C50.125 24.1329 49.855 23.4811 49.3745 23.0005C48.8939 22.52 48.2421 22.25 47.5625 22.25H39.875C39.1954 22.25 38.5436 22.52 38.063 23.0005C37.5825 23.4811 37.3125 24.1329 37.3125 24.8125V45.3125C37.3125 45.9921 37.5825 46.6439 38.063 47.1245C38.5436 47.605 39.1954 47.875 39.875 47.875H47.5625C48.2421 47.875 48.8939 47.605 49.3745 47.1245C49.855 46.6439 50.125 45.9921 50.125 45.3125C50.125 44.6329 49.855 43.9811 49.3745 43.5005C48.8939 43.02 48.2421 42.75 47.5625 42.75H42.4375V37.625H45C45.6796 37.625 46.3314 37.355 46.812 36.8745C47.2925 36.3939 47.5625 35.7421 47.5625 35.0625C47.5625 34.3829 47.2925 33.7311 46.812 33.2505C46.3314 32.77 45.6796 32.5 45 32.5H42.4375ZM68.7576 22.3461C68.1034 22.1618 67.4029 22.2448 66.81 22.577C66.2171 22.9092 65.7804 23.4633 65.5961 24.1174L62.2969 35.8473L58.9977 24.1174C58.8111 23.4658 58.374 22.9147 57.782 22.5846C57.19 22.2545 56.4914 22.1724 55.839 22.3563C55.1867 22.5401 54.6337 22.975 54.3012 23.5656C53.9687 24.1562 53.8837 24.8545 54.0648 25.5076L59.8305 46.0076C59.982 46.5451 60.3049 47.0183 60.7501 47.3554C61.1953 47.6925 61.7384 47.8749 62.2969 47.8749C62.8553 47.8749 63.3984 47.6925 63.8437 47.3554C64.2889 47.0183 64.6118 46.5451 64.7633 46.0076L70.5289 25.5076C70.7132 24.8534 70.6302 24.1529 70.298 23.56C69.9658 22.9671 69.4117 22.5304 68.7576 22.3461Z" fill="white"/>
</g>
<defs>
<filter id="filter0_d_224_57" x="-3" y="0" width="90" height="90" filterUnits="userSpaceOnUse" color-interpolation-filters="sRGB">
<feFlood flood-opacity="0" result="BackgroundImageFix"/>
<feColorMatrix in="SourceAlpha" type="matrix" values="0 0 0 0 0 0 0 0 0 0 0 0 0 0 0 0 0 0 127 0" result="hardAlpha"/>
<feOffset dy="4"/>
<feGaussianBlur stdDeviation="2"/>
<feComposite in2="hardAlpha" operator="out"/>
<feColorMatrix type="matrix" values="0 0 0 0 0 0 0 0 0 0 0 0 0 0 0 0 0 0 0.25 0"/>
<feBlend mode="normal" in2="BackgroundImageFix" result="effect1_dropShadow_224_57"/>
<feBlend mode="normal" in="SourceGraphic" in2="effect1_dropShadow_224_57" result="shape"/>
</filter>
</defs>
</svg>
