<svg width="100" height="100" viewBox="0 0 100 100" fill="none" xmlns="http://www.w3.org/2000/svg">
<path d="M12.5 41.6667C11.5 41.6667 10.625 42.0417 10.0416 42.7083C9.45832 43.3333 9.20832 44.25 9.33332 45.25L11.4166 57.7083C11.75 60.4167 14.1666 62.5 16.6666 62.5H29.1666C31.8333 62.5 34.8333 60.1667 35.4166 57.5833L39.8333 44.2917C40 43.75 39.875 42.9583 39.5833 42.4583C39.125 41.9583 38.4166 41.6667 37.5 41.6667H12.5ZM29.1666 70.8333H16.6666C9.91665 70.8333 3.99998 65.5833 3.16665 58.9167L1.08332 46.4583C0.624983 42.9167 1.62498 39.5833 3.79165 37.1667C5.95832 34.75 9.12498 33.3333 12.5 33.3333H37.5C40.9583 33.3333 44.0833 34.7917 46.0833 37.3333C46.5416 37.9583 46.9583 38.625 47.2916 39.375C49.0833 39 50.9166 39 52.6666 39.375C53 38.625 53.4166 37.9583 53.9166 37.3333C55.875 34.7917 59 33.3333 62.5 33.3333H87.5C90.875 33.3333 94.0416 34.75 96.2083 37.1667C98.3333 39.5833 99.3333 42.9167 98.9166 46.2917L96.7916 59.0833C96 65.5833 90.0416 70.8333 83.3333 70.8333H70.8333C64.3333 70.8333 58 65.875 56.4166 59.5833L52.6666 48.2917C51.0833 47.125 48.875 47.125 47.2916 48.2917L43.4583 59.875C41.9583 65.9167 35.6666 70.8333 29.1666 70.8333ZM62.5 41.6667C61.5833 41.6667 60.875 41.9583 60.4166 42.4583C60.0833 42.9583 60 43.75 60.2083 44.5833L64.4166 57.2917C65.1666 60.1667 68.1666 62.5 70.8333 62.5H83.3333C85.7916 62.5 88.25 60.4167 88.5416 57.875L90.6666 45.0833C90.7916 44.25 90.5416 43.3333 89.9583 42.7083C89.6475 42.3682 89.2671 42.099 88.8428 41.9192C88.4186 41.7395 87.9605 41.6533 87.5 41.6667H62.5Z" fill="white"/>
</svg>
