<svg width="61" height="61" viewBox="0 0 61 61" fill="none" xmlns="http://www.w3.org/2000/svg">
<g clip-path="url(#clip0_224_154)">
<path d="M54.9 44.7333H47.58L33.3466 2.03333C32.5333 -0.813335 28.4667 -0.813335 27.6533 2.03333L13.42 44.7333H6.09998C4.87998 44.7333 4.06665 45.5467 4.06665 46.7667V50.8333C4.06665 52.0533 4.87998 52.8667 6.09998 52.8667H54.9C56.12 52.8667 56.9333 52.0533 56.9333 50.8333V46.7667C56.9333 45.5467 56.12 44.7333 54.9 44.7333ZM28.4667 12.2H32.5333L35.38 20.3333H26.0267L28.4667 12.2ZM23.18 28.4667H37.82L40.6666 36.6H20.3333L23.18 28.4667Z" fill="white"/>
</g>
<defs>
<clipPath id="clip0_224_154">
<rect width="61" height="61" fill="white"/>
</clipPath>
</defs>
</svg>
