<svg width="70" height="70" viewBox="0 0 70 70" fill="none" xmlns="http://www.w3.org/2000/svg">
<mask id="mask0_224_156" style="mask-type:luminance" maskUnits="userSpaceOnUse" x="0" y="4" width="70" height="60">
<path d="M5.83337 46.7877C5.83337 45.0348 6.22129 43.295 7.24942 41.876C10.274 37.6979 18.4786 29.1667 35 29.1667C51.523 29.1667 59.7261 37.6994 62.7507 41.876C63.7788 43.295 64.1667 45.0348 64.1667 46.7877C64.1667 49.8498 62.9503 52.7865 60.7851 54.9517C58.6198 57.1169 55.6832 58.3333 52.6211 58.3333H17.379C14.3169 58.3333 11.3802 57.1169 9.21501 54.9517C7.04978 52.7865 5.83337 49.8498 5.83337 46.7877Z" fill="#555555" stroke="white" stroke-width="10.6667" stroke-linecap="round" stroke-linejoin="round"/>
<path d="M17.5001 13.125V18.9583M20.4167 32.0833V37.9167M52.5001 13.125V18.9583M49.5834 32.0833V37.9167M35.0001 10.2083V18.9583M35.0001 29.1667V40.8333M35.0001 29.1667C46.3867 29.1667 53.8213 33.2208 58.3334 37.1044M35.0001 29.1667C23.6134 29.1667 16.1788 33.2194 11.6667 37.1044" stroke="white" stroke-width="10.6667" stroke-linecap="round"/>
</mask>
<g mask="url(#mask0_224_156)">
<path d="M0 0H70V70H0V0Z" fill="white"/>
</g>
</svg>
