<svg width="65" height="65" viewBox="0 0 65 65" fill="none" xmlns="http://www.w3.org/2000/svg">
<g clip-path="url(#clip0_224_65)">
<path d="M46.9445 22.2806C45.0092 21.0624 43.4145 19.3734 42.3093 17.3715C41.2041 15.3695 40.6246 13.1201 40.625 10.8333H7.07779C6.75378 10.8383 6.43191 10.8869 6.12085 10.9778L32.2111 36.9597L46.9445 22.2806Z" fill="white"/>
<path d="M54.1667 24.375C52.9449 24.3644 51.7301 24.1883 50.5556 23.8514L34.8292 39.5236C34.1526 40.1962 33.2374 40.5737 32.2834 40.5737C31.3293 40.5737 30.4141 40.1962 29.7375 39.5236L3.61113 13.5417C3.53103 13.8361 3.48857 14.1394 3.48474 14.4444V50.5556C3.48474 51.5133 3.8652 52.4318 4.54241 53.109C5.21963 53.7862 6.13813 54.1667 7.09585 54.1667H57.6514C58.6091 54.1667 59.5276 53.7862 60.2049 53.109C60.8821 52.4318 61.2625 51.5133 61.2625 50.5556V22.3708C59.1301 23.6868 56.6725 24.3809 54.1667 24.375ZM9.56946 50.5556H7.05974V47.9736L20.1861 34.9556L22.732 37.5014L9.56946 50.5556ZM57.6153 50.5556H55.0875L41.925 37.5014L44.4709 34.9556L57.5972 47.9736L57.6153 50.5556Z" fill="white"/>
<path d="M54.1667 19.8611C59.1526 19.8611 63.1945 15.8192 63.1945 10.8333C63.1945 5.84743 59.1526 1.80556 54.1667 1.80556C49.1808 1.80556 45.1389 5.84743 45.1389 10.8333C45.1389 15.8192 49.1808 19.8611 54.1667 19.8611Z" fill="white"/>
</g>
<defs>
<clipPath id="clip0_224_65">
<rect width="65" height="65" fill="white"/>
</clipPath>
</defs>
</svg>
