<svg width="59" height="59" viewBox="0 0 59 59" fill="none" xmlns="http://www.w3.org/2000/svg">
<path d="M39.6406 27.6562C39.6406 29.6619 39.0459 31.6225 37.9316 33.2901C36.8174 34.9577 35.2336 36.2574 33.3807 37.025C31.5277 37.7925 29.4888 37.9933 27.5217 37.602C25.5546 37.2107 23.7477 36.2449 22.3295 34.8268C20.9113 33.4086 19.9455 31.6017 19.5542 29.6346C19.163 27.6675 19.3638 25.6286 20.1313 23.7756C20.8988 21.9226 22.1986 20.3389 23.8662 19.2246C25.5338 18.1104 27.4944 17.5156 29.5 17.5156C32.1885 17.5187 34.7661 18.588 36.6671 20.4891C38.5682 22.3902 39.6376 24.9677 39.6406 27.6562ZM53.4688 29.5C53.4688 34.2406 52.063 38.8747 49.4293 42.8163C46.7956 46.758 43.0522 49.8301 38.6725 51.6442C34.2927 53.4584 29.4734 53.933 24.8239 53.0082C20.1745 52.0834 15.9036 49.8006 12.5515 46.4485C9.19946 43.0964 6.91665 38.8256 5.99181 34.1761C5.06697 29.5266 5.54164 24.7073 7.35577 20.3276C9.16991 15.9478 12.242 12.2044 16.1837 9.57071C20.1253 6.93699 24.7594 5.53125 29.5 5.53125C35.8549 5.53796 41.9475 8.06539 46.4411 12.5589C50.9346 17.0525 53.4621 23.1452 53.4688 29.5ZM49.7813 29.5C49.7783 26.7702 49.2249 24.069 48.154 21.558C47.0832 19.0469 45.5169 16.7776 43.5489 14.8858C41.581 12.994 39.2517 11.5185 36.7003 10.5475C34.149 9.57659 31.4281 9.13014 28.7003 9.23488C17.8452 9.65434 9.1888 18.6956 9.21876 29.5576C9.22917 34.5024 11.0529 39.2716 14.3444 42.9617C15.6848 41.0175 17.3876 39.3499 19.3594 38.0504C19.5275 37.9394 19.7274 37.8865 19.9284 37.8998C20.1294 37.9131 20.3206 37.9919 20.4726 38.1241C22.9782 40.2914 26.1803 41.4841 29.4931 41.4841C32.8059 41.4841 36.008 40.2914 38.5136 38.1241C38.6656 37.9919 38.8568 37.9131 39.0578 37.8998C39.2588 37.8865 39.4587 37.9394 39.6268 38.0504C41.6011 39.3492 43.3062 41.0168 44.6487 42.9617C47.9565 39.2581 49.7837 34.4657 49.7813 29.5Z" fill="white"/>
</svg>
