<svg width="50" height="50" viewBox="0 0 50 50" fill="none" xmlns="http://www.w3.org/2000/svg">
<path d="M45.4481 9.66924C45.2609 9.45542 45.0315 9.28255 44.7744 9.16144C44.5173 9.04033 44.238 8.97359 43.9539 8.96539C39.5404 8.85001 33.9558 4.13077 30.2635 2.27885C27.9827 1.13847 26.477 0.386544 25.3462 0.188467C25.1166 0.15501 24.8833 0.155658 24.6539 0.19039C23.5231 0.388467 22.0173 1.14039 19.7385 2.28077C16.0462 4.13077 10.4616 8.85001 6.04811 8.96539C5.76382 8.97402 5.48434 9.04094 5.22697 9.16201C4.96961 9.28308 4.73986 9.45573 4.55196 9.66924C4.16248 10.1099 3.96153 10.6858 3.99234 11.2731C4.94042 30.5481 11.8539 42.4769 23.9847 49.4096C24.3 49.5885 24.65 49.6808 24.9981 49.6808C25.3462 49.6808 25.6962 49.5885 26.0135 49.4096C38.1443 42.4769 45.0558 30.5481 46.0058 11.2731C46.0384 10.6859 45.838 10.1095 45.4481 9.66924ZM35.802 17.25L25.5654 32.3558C25.1981 32.8981 24.6212 33.2577 24.05 33.2577C23.477 33.2577 22.8404 32.9442 22.4385 32.5423L15.2231 25.325C14.9875 25.0886 14.8553 24.7684 14.8553 24.4346C14.8553 24.1009 14.9875 23.7807 15.2231 23.5442L17.0058 21.7577C17.2427 21.5231 17.5627 21.3914 17.8962 21.3914C18.2296 21.3914 18.5496 21.5231 18.7866 21.7577L23.4789 26.45L31.6308 14.4173C31.8194 14.142 32.1093 13.9524 32.4372 13.8901C32.7651 13.8278 33.1043 13.8977 33.3808 14.0846L35.4673 15.5C35.743 15.6883 35.9329 15.9781 35.9956 16.306C36.0583 16.6339 35.9887 16.9733 35.802 17.25Z" fill="white"/>
</svg>
