<svg width="68" height="68" viewBox="0 0 68 68" fill="none" xmlns="http://www.w3.org/2000/svg">
<g clip-path="url(#clip0_224_100)">
<path d="M46.121 6.06616L43.7693 13.7218C22.6865 0.492995 8.38097 13.3847 8.38097 13.3847C-4.64103 24.2647 1.38831 41.5877 1.40247 41.5877C3.54731 -0.0453367 40.3466 25.3385 40.3466 25.3385C39.6751 28.3588 37.5246 32.7902 37.5926 32.8582L61.6986 29.2995L46.121 6.06616ZM66.6003 26.4123C64.4498 68.0453 27.6533 42.6615 27.6533 42.6615C28.594 39.6412 30.5433 35.1418 30.5433 35.275L6.43164 38.7033L21.8761 61.9367L24.2278 54.281C45.3106 67.5098 59.6161 54.6182 59.6161 54.6182C72.641 43.7382 66.5975 26.4152 66.5975 26.4152L66.6003 26.4123Z" fill="white"/>
</g>
<defs>
<clipPath id="clip0_224_100">
<rect width="68" height="68" fill="white"/>
</clipPath>
</defs>
</svg>
