<svg width="56" height="64" viewBox="0 0 56 64" fill="none" xmlns="http://www.w3.org/2000/svg">
<g clip-path="url(#clip0_224_104)" filter="url(#filter0_d_224_104)">
<path d="M6.40122 56H49.599C49.599 55.3913 49.999 52.221 50.799 46.4891C51.5989 40.7572 51.9989 36.9783 51.9989 35.1522C51.9989 34.8225 51.9114 34.5118 51.7364 34.2201C51.5614 33.9284 51.2739 33.6685 50.874 33.4402C50.474 33.212 50.074 33.0091 49.674 32.8315C49.274 32.654 48.7116 32.4638 47.9866 32.2609C47.2617 32.058 46.6242 31.8931 46.0742 31.7663C45.5242 31.6395 44.7555 31.462 43.7681 31.2337C42.7806 31.0054 41.9744 30.8152 41.3494 30.663C40.6995 30.4094 40.0683 30.1178 39.4558 29.788C38.8433 29.4583 38.4496 29.2554 38.2746 29.1793C38.0996 29.4076 37.9371 30.5933 37.7871 32.7364C37.6371 34.8795 37.4246 37.3207 37.1497 40.0598C36.8747 42.7989 36.5372 44.8533 36.1372 46.2228C35.9622 46.8315 35.5997 47.3388 35.0498 47.7446C34.4998 48.1504 34.0248 48.404 33.6248 48.5054C33.2249 48.6069 32.8999 48.6576 32.6499 48.6576H23.3504C23.1004 48.6576 22.7754 48.6069 22.3754 48.5054C21.9754 48.404 21.5005 48.1504 20.9505 47.7446C20.4005 47.3388 20.038 46.8315 19.863 46.2228C19.4631 44.8533 19.1256 42.7989 18.8506 40.0598C18.5756 37.3207 18.3631 34.8795 18.2131 32.7364C18.0631 30.5933 17.9006 29.4076 17.7256 29.1793C17.5507 29.2554 17.1569 29.4583 16.5445 29.788C15.932 30.1178 15.3008 30.4094 14.6508 30.663C14.0258 30.8152 13.2196 31.0054 12.2322 31.2337C11.2447 31.462 10.476 31.6395 9.92604 31.7663C9.37607 31.8931 8.7386 32.058 8.01364 32.2609C7.28868 32.4638 6.7262 32.654 6.32622 32.8315C5.92625 33.0091 5.52627 33.212 5.12629 33.4402C4.72631 33.6685 4.43882 33.9284 4.26383 34.2201C4.08884 34.5118 4.00134 34.8225 4.00134 35.1522C4.00134 36.9783 4.40132 40.7572 5.20128 46.4891C6.00124 52.221 6.40122 55.3913 6.40122 56ZM28.0001 30.4348L35.1998 28V35.3043L28.0001 32.8696L20.8005 35.3043V28L28.0001 30.4348ZM28.0001 38.9565C27.7001 38.9565 27.4252 38.836 27.1752 38.5951C26.9252 38.3542 26.8002 38.0688 26.8002 37.7391C26.8002 37.4094 26.9252 37.1241 27.1752 36.8832C27.4252 36.6422 27.7001 36.5217 28.0001 36.5217C28.3001 36.5217 28.5751 36.6422 28.8251 36.8832C29.0751 37.1241 29.2001 37.4094 29.2001 37.7391C29.2001 38.0688 29.0751 38.3542 28.8251 38.5951C28.5751 38.836 28.3001 38.9565 28.0001 38.9565ZM28.0001 43.8261C27.7001 43.8261 27.4252 43.7056 27.1752 43.4647C26.9252 43.2237 26.8002 42.9384 26.8002 42.6087C26.8002 42.279 26.9252 41.9937 27.1752 41.7527C27.4252 41.5118 27.7001 41.3913 28.0001 41.3913C28.3001 41.3913 28.5751 41.5118 28.8251 41.7527C29.0751 41.9937 29.2001 42.279 29.2001 42.6087C29.2001 42.9384 29.0751 43.2237 28.8251 43.4647C28.5751 43.7056 28.3001 43.8261 28.0001 43.8261ZM34.5248 24.8043C37.1247 26.808 39.5495 27.6069 41.7994 27.2011C40.5995 26.4909 39.887 25.413 39.662 23.9674C40.062 24.5 40.6432 24.8424 41.4057 24.9946C42.1682 25.1467 42.9119 25.096 43.6368 24.8424C42.4119 23.7518 41.5994 22.6232 41.1995 21.4565C40.7995 20.2899 40.4995 18.692 40.2995 16.663C40.1995 15.5471 40.1308 13.9683 40.0933 11.9266C40.0558 9.88496 39.937 8.29348 39.737 7.15217C39.537 6.01087 39.1371 5.00906 38.5371 4.14674C37.7871 3.05616 36.2372 2.09239 33.8873 1.25543C31.5374 0.418478 29.575 0 28.0001 0C25.8252 0 23.5379 0.54529 21.138 1.63587C18.7381 2.72645 17.2257 4.21014 16.6007 6.08696C16.4257 6.61957 16.282 7.73551 16.1695 9.43478C16.057 11.1341 15.9757 12.827 15.9257 14.5136C15.8757 16.2002 15.8507 17.0815 15.8507 17.1576C15.4008 21.6467 14.4758 24.4366 13.0759 25.5272C13.4259 25.7554 13.9758 25.7618 14.7258 25.5462C15.4758 25.3306 16.1257 25.0072 16.6757 24.5761C16.6507 25.337 16.0882 26.3514 14.9883 27.6196C15.6633 27.7464 16.7819 27.5054 18.3444 26.8967C19.9068 26.288 21.113 25.7047 21.9629 25.1467C23.8378 26.2373 25.8502 26.7826 28.0001 26.7826C30.375 26.7826 32.5499 26.1232 34.5248 24.8043ZM20.463 21.5707C20.238 20.0489 20.388 17.462 20.913 13.8098C21.438 10.1576 22.2129 8.0779 23.2379 7.57065C23.4129 7.49457 23.7378 7.65308 24.2128 8.0462C24.6878 8.43931 24.9503 8.77536 25.0003 9.05435C25.1503 9.86594 25.0003 10.6522 24.5503 11.413C25.0253 11.8442 25.944 12.1105 27.3064 12.212C28.6688 12.3134 29.9063 12.3197 31.0187 12.231C32.1312 12.1422 32.9749 12.0344 33.5498 11.9076C33.8498 12.2373 34.1311 12.5924 34.3936 12.9728C34.656 13.3533 34.8748 13.7781 35.0498 14.2473C35.2248 14.7165 35.3748 15.1223 35.4997 15.4647C35.6247 15.8071 35.7435 16.2763 35.856 16.8723C35.9685 17.4683 36.0435 17.8868 36.081 18.1277C36.1185 18.3687 36.1747 18.7998 36.2497 19.4212C36.3247 20.0426 36.3747 20.404 36.3997 20.5054C35.4497 21.875 34.2373 22.9592 32.7624 23.7582C31.2875 24.5571 29.7 24.9565 28.0001 24.9565C25.0003 24.9565 22.4879 23.8279 20.463 21.5707Z" fill="white"/>
</g>
<defs>
<filter id="filter0_d_224_104" x="0" y="0" width="56" height="64" filterUnits="userSpaceOnUse" color-interpolation-filters="sRGB">
<feFlood flood-opacity="0" result="BackgroundImageFix"/>
<feColorMatrix in="SourceAlpha" type="matrix" values="0 0 0 0 0 0 0 0 0 0 0 0 0 0 0 0 0 0 127 0" result="hardAlpha"/>
<feOffset dy="4"/>
<feGaussianBlur stdDeviation="2"/>
<feComposite in2="hardAlpha" operator="out"/>
<feColorMatrix type="matrix" values="0 0 0 0 0 0 0 0 0 0 0 0 0 0 0 0 0 0 0.25 0"/>
<feBlend mode="normal" in2="BackgroundImageFix" result="effect1_dropShadow_224_104"/>
<feBlend mode="normal" in="SourceGraphic" in2="effect1_dropShadow_224_104" result="shape"/>
</filter>
<clipPath id="clip0_224_104">
<rect width="48" height="56" fill="white" transform="translate(4)"/>
</clipPath>
</defs>
</svg>
