<svg width="46" height="54" viewBox="0 0 46 54" fill="none" xmlns="http://www.w3.org/2000/svg">
<path d="M0 54V28.2857L4.025 16.3929C4.36574 15.2786 5.00463 14.4111 5.94167 13.7906C6.8787 13.17 7.87963 12.8589 8.94444 12.8571C9.28518 12.8571 9.62593 12.8897 9.96667 12.9549C10.3074 13.02 10.6481 13.1374 10.9889 13.3071L21.5944 18H28.1111V23.1429H20.4444L13.5444 20.1214L10.2222 30.2143V54H0ZM15.3333 46.2857V41.1429H46V46.2857H15.3333ZM42.1667 38.5714C41.1018 38.5714 40.1972 38.1969 39.4527 37.4477C38.7081 36.6986 38.335 35.7874 38.3333 34.7143C38.3333 33.6429 38.7064 32.7326 39.4527 31.9834C40.1989 31.2343 41.1036 30.8589 42.1667 30.8571C43.2315 30.8571 44.137 31.2326 44.8832 31.9834C45.6294 32.7343 46.0017 33.6446 46 34.7143C46 35.7857 45.6277 36.6969 44.8832 37.4477C44.1387 38.1986 43.2332 38.5731 42.1667 38.5714ZM25.5556 38.5714C24.15 38.5714 22.9472 38.0683 21.9471 37.062C20.947 36.0557 20.4461 34.8446 20.4444 33.4286V30.8571H15.3333V25.7143H23C23.7241 25.7143 24.3314 25.9611 24.8221 26.4549C25.3128 26.9486 25.5573 27.5589 25.5556 28.2857V30.8571H30.6667V25.7143H35.7778V33.4286C35.7778 34.8429 35.2777 36.054 34.2777 37.062C33.2776 38.07 32.0739 38.5731 30.6667 38.5714H25.5556ZM12.7778 10.2857C11.3722 10.2857 10.1694 9.78257 9.16933 8.77629C8.16926 7.77 7.66837 6.55886 7.66667 5.14286C7.66667 3.72857 8.16755 2.51829 9.16933 1.512C10.1711 0.505714 11.3739 0.00171429 12.7778 0C14.1833 0 15.387 0.504 16.3888 1.512C17.3906 2.52 17.8906 3.73029 17.8889 5.14286C17.8889 6.55714 17.3889 7.76829 16.3888 8.77629C15.3887 9.78429 14.185 10.2874 12.7778 10.2857Z" fill="white"/>
</svg>
