<svg width="69" height="69" viewBox="0 0 69 69" fill="none" xmlns="http://www.w3.org/2000/svg">
<g clip-path="url(#clip0_224_148)">
<path d="M34.5 5.75C50.3786 5.75 63.25 18.6214 63.25 34.5C63.25 50.3786 50.3786 63.25 34.5 63.25C18.6214 63.25 5.75 50.3786 5.75 34.5C5.75 18.6214 18.6214 5.75 34.5 5.75ZM26.5075 23H25.2425C23.9603 23.0002 22.7149 23.429 21.7043 24.2182C20.6937 25.0073 19.9759 26.1117 19.665 27.3556L15.8988 42.4293C15.7998 42.7979 15.7753 43.1826 15.8267 43.5608C15.878 43.939 16.0041 44.3033 16.1977 44.6322C16.3912 44.9612 16.6484 45.2483 16.9541 45.4769C17.2598 45.7054 17.608 45.8708 17.9783 45.9634C18.3486 46.056 18.7336 46.0739 19.1109 46.0161C19.4882 45.9583 19.8502 45.8259 20.1758 45.6268C20.5014 45.4276 20.7841 45.1656 21.0074 44.856C21.2306 44.5464 21.39 44.1955 21.4763 43.8236L22.3675 40.25H29.3825L30.2738 43.8208C30.36 44.1926 30.5194 44.5435 30.7426 44.8531C30.9659 45.1627 31.2486 45.4247 31.5742 45.6239C31.8998 45.8231 32.2618 45.9554 32.6391 46.0132C33.0164 46.071 33.4014 46.0531 33.7717 45.9605C34.142 45.868 34.4902 45.7026 34.7959 45.474C35.1016 45.2455 35.3588 44.9583 35.5523 44.6294C35.7459 44.3004 35.872 43.9362 35.9233 43.5579C35.9747 43.1797 35.9502 42.795 35.8513 42.4264L32.085 27.3556C31.7741 26.1117 31.0563 25.0073 30.0457 24.2182C29.0351 23.429 27.7897 23.0002 26.5075 23ZM46 23H40.25C39.4875 23 38.7562 23.3029 38.2171 23.8421C37.6779 24.3812 37.375 25.1125 37.375 25.875V43.125C37.375 43.8875 37.6779 44.6188 38.2171 45.1579C38.7562 45.6971 39.4875 46 40.25 46H46C48.2875 46 50.4813 45.0913 52.0988 43.4738C53.7163 41.8563 54.625 39.6625 54.625 37.375V31.625C54.625 29.3375 53.7163 27.1437 52.0988 25.5262C50.4813 23.9087 48.2875 23 46 23ZM46 28.75C46.7625 28.75 47.4938 29.0529 48.0329 29.5921C48.5721 30.1312 48.875 30.8625 48.875 31.625V37.375C48.875 38.1375 48.5721 38.8688 48.0329 39.4079C47.4938 39.9471 46.7625 40.25 46 40.25H43.125V28.75H46ZM26.5075 28.75L27.945 34.5H23.805L25.2425 28.75H26.5075Z" fill="white"/>
</g>
<defs>
<clipPath id="clip0_224_148">
<rect width="69" height="69" fill="white"/>
</clipPath>
</defs>
</svg>
