<svg width="32" height="32" viewBox="0 0 32 32" fill="none" xmlns="http://www.w3.org/2000/svg">
<path d="M3.16667 31.6667C2.29583 31.6667 1.55061 31.3569 0.931 30.7373C0.311389 30.1176 0.00105556 29.3719 0 28.5V9.5C0 8.62917 0.310333 7.88394 0.931 7.26433C1.55167 6.64472 2.29689 6.33439 3.16667 6.33333H9.5V3.16667C9.5 2.29583 9.81033 1.55061 10.431 0.931C11.0517 0.311389 11.7969 0.00105556 12.6667 0H19C19.8708 0 20.6166 0.310333 21.2373 0.931C21.8579 1.55167 22.1677 2.29689 22.1667 3.16667V6.33333H28.5C29.3708 6.33333 30.1166 6.64367 30.7373 7.26433C31.3579 7.885 31.6677 8.63022 31.6667 9.5V28.5C31.6667 29.3708 31.3569 30.1166 30.7373 30.7373C30.1176 31.3579 29.3719 31.6677 28.5 31.6667H3.16667ZM12.6667 6.33333H19V3.16667H12.6667V6.33333ZM14.25 20.5833V23.75C14.25 24.1986 14.402 24.5749 14.706 24.8789C15.01 25.1829 15.3858 25.3344 15.8333 25.3333C16.2819 25.3333 16.6583 25.1813 16.9623 24.8773C17.2663 24.5733 17.4177 24.1976 17.4167 23.75V20.5833H20.5833C21.0319 20.5833 21.4083 20.4313 21.7123 20.1273C22.0163 19.8233 22.1677 19.4476 22.1667 19C22.1667 18.5514 22.0147 18.1756 21.7107 17.8727C21.4067 17.5697 21.0309 17.4177 20.5833 17.4167H17.4167V14.25C17.4167 13.8014 17.2647 13.4256 16.9607 13.1227C16.6567 12.8197 16.2809 12.6677 15.8333 12.6667C15.3847 12.6667 15.0089 12.8187 14.706 13.1227C14.4031 13.4267 14.2511 13.8024 14.25 14.25V17.4167H11.0833C10.6347 17.4167 10.2589 17.5687 9.956 17.8727C9.65306 18.1767 9.50106 18.5524 9.5 19C9.5 19.4486 9.652 19.8249 9.956 20.1289C10.26 20.4329 10.6358 20.5844 11.0833 20.5833H14.25Z" fill="white"/>
</svg>
